<svg width="40" height="40" viewBox="0 0 40 40" fill="none" xmlns="http://www.w3.org/2000/svg">
    <g clip-path="url(#clip0_7_8515)">
        <path d="M31.1863 31.1864H8.81372C8.33302 31.1864 7.94499 30.7983 7.94499 30.3176V25.2252C7.94499 24.1421 7.08107 23.2781 5.99807 23.2781C5.51737 23.2781 5.12934 22.8901 5.12934 22.4094V17.5907C5.12934 17.1099 5.51737 16.7219 5.99807 16.7219C7.08107 16.7219 7.94499 15.8579 7.94499 14.7749V9.68252C7.94499 9.20183 8.33302 8.8138 8.81372 8.8138H31.1863C31.667 8.8138 32.055 9.20183 32.055 9.68252V14.7749C32.055 15.8579 32.9189 16.7219 34.0019 16.7219C34.4826 16.7219 34.8707 17.1099 34.8707 17.5907V22.4094C34.8707 22.8901 34.4826 23.2781 34.0019 23.2781C32.9189 23.2781 32.055 24.1421 32.055 25.2252V30.3176C32.055 30.7983 31.667 31.1864 31.1863 31.1864ZM9.68244 29.4489H30.3175V25.2252C30.3175 23.4999 31.5627 22.0578 33.1332 21.7683V18.2318C31.5627 17.9423 30.3175 16.5002 30.3175 14.7749V10.5513H9.68244V14.7749C9.68244 16.5002 8.43723 17.9423 6.86686 18.2318V21.7683C8.43723 22.0578 9.68244 23.4999 9.68244 25.2252V29.4489Z" fill="#CCCCCC"/>
        <path d="M20.0001 25.9375C19.5194 25.9375 19.1313 25.5495 19.1313 25.0688V14.9313C19.1313 14.4506 19.5194 14.0625 20.0001 14.0625C20.4808 14.0625 20.8688 14.4506 20.8688 14.9313V25.0688C20.8688 25.5495 20.4808 25.9375 20.0001 25.9375Z" fill="#CCCCCC"/>
        <path d="M25.9375 20C25.9375 20.4807 25.5495 20.8687 25.0688 20.8687H14.9312C14.4505 20.8687 14.0625 20.4807 14.0625 20C14.0625 19.5193 14.4505 19.1312 14.9312 19.1312H25.0688C25.5495 19.1312 25.9375 19.5193 25.9375 20Z" fill="#CCCCCC"/>
    </g>
    <defs>
        <clipPath id="clip0_7_8515">
            <rect width="30" height="30" fill="white" transform="translate(5 5)"/>
        </clipPath>
    </defs>
</svg>