<svg width="30" height="30" viewBox="0 0 30 30" fill="none" xmlns="http://www.w3.org/2000/svg">
<g clip-path="url(#clip0_2029_1608)">
<path d="M15.0001 25.2973C14.2009 25.2973 13.5522 24.6486 13.5522 23.8494V6.15057C13.5522 5.35135 14.2009 4.7027 15.0001 4.7027C15.7994 4.7027 16.448 5.35135 16.448 6.15057V23.8494C16.448 24.6486 15.7994 25.2973 15.0001 25.2973Z" fill="white"/>
<path d="M23.8494 16.4479H6.15051C5.35129 16.4479 4.70264 15.7992 4.70264 15C4.70264 14.2008 5.35129 13.5521 6.15051 13.5521H23.8494C24.6486 13.5521 25.2972 14.2008 25.2972 15C25.2972 15.7992 24.6486 16.4479 23.8494 16.4479Z" fill="white"/>
</g>
<defs>
<clipPath id="clip0_2029_1608">
<rect width="30" height="30" fill="white"/>
</clipPath>
</defs>
</svg>
