<svg width="40" height="40" viewBox="0 0 40 40" fill="none" xmlns="http://www.w3.org/2000/svg">
<g clip-path="url(#clip0_7_8489)">
<path d="M30.5172 31.3861H23.4864C23.0057 31.3861 22.6176 30.998 22.6176 30.5173V24.2162C22.6176 22.7683 21.442 21.5926 19.9941 21.5926C18.5462 21.5926 17.3705 22.7683 17.3705 24.2162V30.5173C17.3705 30.998 16.9825 31.3861 16.5018 31.3861H9.4825C9.0018 31.3861 8.61377 30.998 8.61377 30.5173V17.6486C8.61377 17.3822 8.73539 17.1274 8.94968 16.9652L19.4671 8.79339C19.7798 8.55015 20.2199 8.55015 20.5327 8.79339L31.0501 16.9652C31.2643 17.1274 31.386 17.3822 31.386 17.6486V30.5173C31.386 30.998 30.9979 31.3861 30.5172 31.3861ZM24.3609 29.6486H29.6543V18.0772L20.0057 10.583L10.357 18.0772V29.6486H15.6504V24.2162C15.6504 21.8127 17.608 19.8552 20.0115 19.8552C22.4149 19.8552 24.3725 21.8127 24.3725 24.2162V29.6486H24.3609Z" fill="#CCCCCC"/>
</g>
<defs>
<clipPath id="clip0_7_8489">
<rect width="30" height="30" fill="white" transform="translate(5 5)"/>
</clipPath>
</defs>
</svg>
