<svg width="40" height="40" viewBox="0 0 40 40" fill="none" xmlns="http://www.w3.org/2000/svg">
<g clip-path="url(#clip0_7_8500)">
<path d="M19.9998 32.0174C13.3743 32.0174 7.98242 26.6255 7.98242 20C7.98242 19.5193 8.37045 19.1313 8.85115 19.1313C9.33184 19.1313 9.71987 19.5193 9.71987 20C9.71987 25.6699 14.3299 30.28 19.9998 30.28C25.6697 30.28 30.2797 25.6699 30.2797 20C30.2797 14.3302 25.6697 9.72012 19.9998 9.72012C17.272 9.72012 14.7064 10.7742 12.772 12.6912C12.4303 13.0271 11.8801 13.0271 11.5442 12.6854C11.2083 12.3437 11.2083 11.7935 11.55 11.4576C13.8145 9.21626 16.8145 7.98267 19.9998 7.98267C26.6253 7.98267 32.0172 13.3746 32.0172 20C32.0172 26.6255 26.6253 32.0174 19.9998 32.0174Z" fill="#CCCCCC"/>
<path d="M14.9615 13.3166C14.921 13.3166 14.8863 13.3166 14.8457 13.3108L11.1797 12.8243L11.6604 9.19883C11.7241 8.72392 12.1642 8.38802 12.6334 8.45172C13.1083 8.51543 13.4442 8.94979 13.3805 9.4247L13.1314 11.3243L15.0716 11.5791C15.5465 11.6428 15.8824 12.0772 15.8187 12.5521C15.7608 12.9865 15.3901 13.305 14.9557 13.305L14.9615 13.3166Z" fill="#CCCCCC"/>
<path d="M24.6854 21.4015H19.1313V14.6486C19.1313 14.1679 19.5194 13.7799 20.0001 13.7799C20.4808 13.7799 20.8688 14.1679 20.8688 14.6486V19.6641H24.6854C25.1661 19.6641 25.5541 20.0521 25.5541 20.5328C25.5541 21.0135 25.1661 21.4015 24.6854 21.4015Z" fill="#CCCCCC"/>
</g>
<defs>
<clipPath id="clip0_7_8500">
<rect width="30" height="30" fill="white" transform="translate(5 5)"/>
</clipPath>
</defs>
</svg>
