<svg width="40" height="40" viewBox="0 0 40 40" fill="none" xmlns="http://www.w3.org/2000/svg">
<rect width="40" height="40" rx="10" fill="#EFF4FF"/>
<g clip-path="url(#clip0_7_8458)">
<path d="M30.5172 31.3862H23.4864C23.0057 31.3862 22.6176 30.9981 22.6176 30.5175V24.2163C22.6176 22.7684 21.442 21.5927 19.9941 21.5927C18.5462 21.5927 17.3705 22.7684 17.3705 24.2163V30.5175C17.3705 30.9981 16.9825 31.3862 16.5018 31.3862H9.4825C9.0018 31.3862 8.61377 30.9981 8.61377 30.5175V17.6487C8.61377 17.3823 8.73539 17.1275 8.94968 16.9653L19.4671 8.79352C19.7798 8.55027 20.2199 8.55027 20.5327 8.79352L31.0501 16.9653C31.2643 17.1275 31.386 17.3823 31.386 17.6487V30.5175C31.386 30.9981 30.9979 31.3862 30.5172 31.3862ZM24.3609 29.6487H29.6543V18.0773L20.0057 10.5831L10.357 18.0773V29.6487H15.6504V24.2163C15.6504 21.8128 17.608 19.8553 20.0115 19.8553C22.4149 19.8553 24.3725 21.8128 24.3725 24.2163V29.6487H24.3609Z" fill="#5A7EFF"/>
</g>
<defs>
<clipPath id="clip0_7_8458">
<rect width="30" height="30" fill="white" transform="translate(5 5)"/>
</clipPath>
</defs>
</svg>
