<svg width="40" height="40" viewBox="0 0 40 40" fill="none" xmlns="http://www.w3.org/2000/svg">
<g clip-path="url(#clip0_7_8510)">
<path d="M19.9998 20.7819C16.2411 20.7819 13.189 17.724 13.189 13.9711C13.189 10.2182 16.2411 7.16028 19.9998 7.16028C23.7585 7.16028 26.8106 10.2182 26.8106 13.9711C26.8106 17.724 23.7527 20.7819 19.9998 20.7819ZM19.9998 8.89773C17.2025 8.89773 14.9264 11.1738 14.9264 13.9711C14.9264 16.7684 17.2025 19.0444 19.9998 19.0444C22.7971 19.0444 25.0731 16.7684 25.0731 13.9711C25.0731 11.1738 22.7971 8.89773 19.9998 8.89773Z" fill="#CCCCCC"/>
<path d="M29.4692 32.8398H10.531L9.9924 30.0541C9.58121 27.9286 10.1372 25.7452 11.5156 24.0772C12.8939 22.4093 14.9268 21.4479 17.0986 21.4479H22.9017C25.0677 21.4479 27.1005 22.4093 28.4847 24.0772C29.8631 25.751 30.419 27.9286 30.0078 30.0541L29.4692 32.8398ZM11.9615 31.1023H28.0329L28.2994 29.7297C28.6121 28.1139 28.1893 26.4575 27.1411 25.1834C26.0928 23.9151 24.5465 23.1853 22.9017 23.1853H17.0986C15.4538 23.1853 13.9075 23.9151 12.8592 25.1834C11.8109 26.4517 11.3882 28.1081 11.7009 29.7297L11.9673 31.1023H11.9615Z" fill="#CCCCCC"/>
</g>
<defs>
<clipPath id="clip0_7_8510">
<rect width="30" height="30" fill="white" transform="translate(5 5)"/>
</clipPath>
</defs>
</svg>
