<svg width="40" height="40" viewBox="0 0 40 40" fill="none" xmlns="http://www.w3.org/2000/svg">
<rect width="40" height="40" rx="10" fill="#EFF4FF"/>
<g clip-path="url(#clip0_7_8474)">
<path d="M19.9998 20.7818C16.2411 20.7818 13.189 17.7239 13.189 13.971C13.189 10.2181 16.2411 7.16016 19.9998 7.16016C23.7585 7.16016 26.8106 10.2181 26.8106 13.971C26.8106 17.7239 23.7527 20.7818 19.9998 20.7818ZM19.9998 8.89761C17.2025 8.89761 14.9264 11.1737 14.9264 13.971C14.9264 16.7683 17.2025 19.0443 19.9998 19.0443C22.7971 19.0443 25.0731 16.7683 25.0731 13.971C25.0731 11.1737 22.7971 8.89761 19.9998 8.89761Z" fill="#5A7EFF"/>
<path d="M29.4692 32.8396H10.531L9.9924 30.0539C9.58121 27.9284 10.1372 25.7451 11.5156 24.0771C12.8939 22.4091 14.9268 21.4478 17.0986 21.4478H22.9017C25.0677 21.4478 27.1005 22.4091 28.4847 24.0771C29.8631 25.7508 30.419 27.9284 30.0078 30.0539L29.4692 32.8396ZM11.9615 31.1022H28.0329L28.2994 29.7296C28.6121 28.1138 28.1893 26.4574 27.1411 25.1833C26.0928 23.9149 24.5465 23.1852 22.9017 23.1852H17.0986C15.4538 23.1852 13.9075 23.9149 12.8592 25.1833C11.8109 26.4516 11.3882 28.108 11.7009 29.7296L11.9673 31.1022H11.9615Z" fill="#5A7EFF"/>
</g>
<defs>
<clipPath id="clip0_7_8474">
<rect width="30" height="30" fill="white" transform="translate(5 5)"/>
</clipPath>
</defs>
</svg>
