<svg width="40" height="40" viewBox="0 0 40 40" fill="none" xmlns="http://www.w3.org/2000/svg">
<g clip-path="url(#clip0_7_8505)">
<path d="M23.7992 14.7934H16.2008C15.7201 14.7934 15.332 14.4054 15.332 13.9247V11.3011C15.332 8.7297 17.4286 6.63318 20 6.63318C22.5714 6.63318 24.6679 8.7297 24.6679 11.3011V13.9247C24.6679 14.4054 24.2799 14.7934 23.7992 14.7934ZM17.0695 13.056H22.9305V11.3011C22.9305 9.6853 21.6158 8.37063 20 8.37063C18.3842 8.37063 17.0695 9.6853 17.0695 11.3011V13.056Z" fill="#CCCCCC"/>
<path d="M29.1563 32.7413H10.8378C10.5945 32.7413 10.3687 32.6428 10.2065 32.4691C10.0443 32.2954 9.95747 32.0579 9.97485 31.8205L11.1331 13.8726C11.1621 13.415 11.5443 13.0618 12.0019 13.0618H28.0038C28.4613 13.0618 28.8436 13.415 28.8725 13.8726L30.0308 31.8205C30.0482 32.0579 29.9613 32.2954 29.7992 32.4691C29.637 32.6428 29.4053 32.7413 29.1679 32.7413H29.1563ZM11.7644 31.0039H28.2297L27.1814 14.7934H12.8127L11.7644 31.0039Z" fill="#CCCCCC"/>
</g>
<defs>
<clipPath id="clip0_7_8505">
<rect width="30" height="30" fill="white" transform="translate(5 5)"/>
</clipPath>
</defs>
</svg>
