<svg width="24" height="24" viewBox="0 0 24 24" fill="none" xmlns="http://www.w3.org/2000/svg">
<g clip-path="url(#clip0_2029_1477)">
<path d="M20.2796 18.3614H3.7205C3.4842 18.3614 3.26644 18.2456 3.14135 18.0463C3.01162 17.8517 2.99308 17.6015 3.08575 17.3884L4.42011 14.3212V9.98455C4.42011 5.80077 7.82552 2.39999 12.0047 2.39999C16.1838 2.39999 19.5892 5.80077 19.5892 9.98455V14.3212L20.9236 17.3884C21.0163 17.6015 20.9977 17.8517 20.868 18.0463C20.7383 18.2409 20.5205 18.3614 20.2888 18.3614H20.2796ZM4.77687 16.9714H19.2186L18.2502 14.7429C18.2132 14.6548 18.1946 14.5622 18.1946 14.4649V9.98455C18.1946 6.56988 15.4147 3.78996 12 3.78996C8.58536 3.78996 5.80544 6.56988 5.80544 9.98455V14.4649C5.80544 14.5622 5.78691 14.6548 5.74984 14.7429L4.7815 16.9714H4.77687Z" fill="white"/>
<path d="M11.9998 21.1228C10.0956 21.1228 8.54346 19.5753 8.54346 17.6664H9.93342C9.93342 18.8062 10.8601 19.7328 11.9998 19.7328C13.1396 19.7328 14.0662 18.8062 14.0662 17.6664H15.4562C15.4562 19.5707 13.9087 21.1228 11.9998 21.1228Z" fill="white"/>
</g>
<defs>
<clipPath id="clip0_2029_1477">
<rect width="24" height="24" fill="white"/>
</clipPath>
</defs>
</svg>
