<svg width="22" height="22" viewBox="0 0 22 22" fill="none" xmlns="http://www.w3.org/2000/svg">
<path d="M3.32675 12.8239C4.1031 9.09586 7.34852 6.44694 10.9992 6.44694C14.6487 6.44694 17.8941 9.09586 18.6716 12.8239C18.7024 12.9719 18.7907 13.1015 18.9171 13.1843C19.0435 13.2672 19.1976 13.2964 19.3455 13.2656C19.4934 13.2348 19.6231 13.1465 19.7059 13.0201C19.7887 12.8937 19.818 12.7396 19.7872 12.5917C18.9027 8.35138 15.2031 5.30859 10.9992 5.30859C6.79528 5.30859 3.09567 8.35138 2.21118 12.5917C2.18038 12.7396 2.20962 12.8937 2.29245 13.0201C2.37528 13.1465 2.50492 13.2348 2.65285 13.2656C2.80079 13.2964 2.9549 13.2672 3.08128 13.1843C3.20766 13.1015 3.29596 12.9719 3.32675 12.8239ZM10.9878 8.72362C12.0445 8.72362 13.0579 9.14338 13.805 9.89056C14.5522 10.6377 14.972 11.6511 14.972 12.7078C14.972 13.7645 14.5522 14.7779 13.805 15.5251C13.0579 16.2723 12.0445 16.692 10.9878 16.692C9.93112 16.692 8.91772 16.2723 8.17054 15.5251C7.42336 14.7779 7.0036 13.7645 7.0036 12.7078C7.0036 11.6511 7.42336 10.6377 8.17054 9.89056C8.91772 9.14338 9.93112 8.72362 10.9878 8.72362Z" fill="#6A707C"/>
</svg>
