<svg width="26" height="26" viewBox="0 0 26 26" fill="none" xmlns="http://www.w3.org/2000/svg">
<g clip-path="url(#clip0_7_1572)">
<path d="M7.66853 25.5131C7.15592 25.1721 6.7016 24.7507 6.32303 24.2651C5.90661 23.764 5.52079 23.2381 5.16766 22.6905C4.33897 21.4765 3.6891 20.1497 3.23797 18.7507C2.69603 17.1257 2.43359 15.5681 2.43359 14.0447C2.43359 12.3433 2.80166 10.8581 3.52153 9.61009C4.05516 8.63463 4.83974 7.81948 5.79409 7.24896C6.71897 6.6745 7.78166 6.36013 8.87022 6.33896C9.25128 6.33896 9.66159 6.39421 10.0971 6.49984C10.4099 6.5884 10.791 6.72815 11.2565 6.90202C11.8488 7.13034 12.1747 7.27009 12.2852 7.30421C12.6321 7.43096 12.9238 7.48621 13.1529 7.48621C13.3268 7.48621 13.5722 7.43096 13.8508 7.34646C14.0077 7.29121 14.3034 7.19371 14.7267 7.01252C15.146 6.85977 15.4758 6.72896 15.7383 6.63146C16.1405 6.51284 16.5297 6.40315 16.8766 6.3479C17.2879 6.28306 17.7053 6.26588 18.1205 6.29671C18.8401 6.34374 19.5488 6.49622 20.2241 6.74927C21.3283 7.19371 22.2212 7.88759 22.8858 8.87396C22.6049 9.0471 22.3413 9.24681 22.0985 9.47034C21.5701 9.93881 21.12 10.4888 20.7652 11.0994C20.3015 11.9339 20.0611 12.8739 20.0673 13.8286C20.0843 15.001 20.385 16.0337 20.9773 16.9266C21.4127 17.5884 21.9787 18.1544 22.6405 18.5898C22.9793 18.8181 23.271 18.975 23.5505 19.0806C23.4197 19.4868 23.2799 19.8801 23.115 20.2701C22.7409 21.1447 22.2875 21.9831 21.7605 22.775C21.2909 23.4567 20.9228 23.9645 20.6433 24.3025C20.2078 24.8185 19.7886 25.2125 19.3653 25.4871C18.8997 25.7959 18.3497 25.9608 17.7907 25.9608C17.4121 25.9754 17.0336 25.9296 16.6694 25.8251C16.3566 25.7195 16.047 25.605 15.7423 25.4741C15.4256 25.3287 15.099 25.2057 14.7649 25.1061C13.9392 24.894 13.0734 24.8926 12.247 25.102C11.9082 25.1995 11.5823 25.3133 11.2606 25.453C10.808 25.6431 10.5074 25.7707 10.3335 25.8251C9.98659 25.9267 9.62666 25.9901 9.26266 26.0112C8.69959 26.0112 8.17472 25.8503 7.65472 25.5245L7.66853 25.5131ZM15.0948 5.51346C14.3587 5.88152 13.6558 6.03834 12.9579 5.98715C12.8482 5.28434 12.9579 4.56527 13.2496 3.77796C13.4979 3.11095 13.8648 2.49436 14.3327 1.95796C14.8267 1.39329 15.4261 0.930454 16.0974 0.595398C16.8124 0.227336 17.4941 0.0282734 18.1457 -0.000976562C18.2302 0.735148 18.1457 1.45909 17.8752 2.24152C17.6248 2.93319 17.2585 3.57722 16.7921 4.14602C16.316 4.71147 15.7318 5.1761 15.0737 5.51265L15.0948 5.51346Z" fill="#30333E"/>
</g>
<defs>
<clipPath id="clip0_7_1572">
<rect width="26" height="26" fill="white"/>
</clipPath>
</defs>
</svg>
