<svg width="26" height="26" viewBox="0 0 26 26" fill="none" xmlns="http://www.w3.org/2000/svg">
<path d="M6.41996 15.4651L5.59721 18.5365L2.59008 18.6001C1.69139 16.9333 1.18164 15.0262 1.18164 12.9995C1.18164 11.0398 1.65825 9.19171 2.50306 7.56445H2.50371L5.1809 8.05528L6.35366 10.7164C6.10821 11.432 5.97442 12.2002 5.97442 12.9995C5.97451 13.8671 6.13166 14.6982 6.41996 15.4651Z" fill="#FBBB00"/>
<path d="M24.6116 10.792C24.7474 11.5069 24.8181 12.2452 24.8181 12.9998C24.8181 13.8459 24.7292 14.6712 24.5597 15.4673C23.9844 18.1764 22.4811 20.542 20.3987 22.216L20.398 22.2154L17.026 22.0433L16.5487 19.0641C17.9305 18.2537 19.0104 16.9855 19.5793 15.4673H13.2598V10.792H19.6715H24.6116Z" fill="#518EF8"/>
<path d="M20.3976 22.2158L20.3983 22.2164C18.373 23.8444 15.8002 24.8184 12.9996 24.8184C8.49893 24.8184 4.58596 22.3028 2.58984 18.6009L6.41972 15.4658C7.41775 18.1294 9.98724 20.0256 12.9996 20.0256C14.2944 20.0256 15.5074 19.6755 16.5483 19.0645L20.3976 22.2158Z" fill="#28B446"/>
<path d="M20.5442 3.90241L16.7156 7.03681C15.6383 6.36345 14.3649 5.97447 13.0007 5.97447C9.92014 5.97447 7.3026 7.95757 6.35456 10.7167L2.50455 7.56475H2.50391C4.4708 3.77255 8.43313 1.18164 13.0007 1.18164C15.8682 1.18164 18.4974 2.20308 20.5442 3.90241Z" fill="#F14336"/>
</svg>
